<?xml version="1.0" standalone="no"?>
<!DOCTYPE svg PUBLIC "-//W3C//DTD SVG 20010904//EN"
 "http://www.w3.org/TR/2001/REC-SVG-20010904/DTD/svg10.dtd">
<svg version="1.0" xmlns="http://www.w3.org/2000/svg"
 width="25.000000pt" height="25.000000pt" viewBox="0 0 25.000000 25.000000"
 preserveAspectRatio="xMidYMid meet">

<g transform="translate(0.000000,25.000000) scale(0.100000,-0.100000)"
fill="#000000" stroke="none">
<path d="M80 247 c0 -5 9 -21 20 -36 l19 -28 -43 -64 c-23 -35 -51 -76 -60
-91 l-18 -28 33 0 c29 1 38 7 62 46 31 51 40 50 73 -11 16 -29 24 -35 52 -35
l34 0 -17 28 c-10 15 -38 55 -62 90 l-43 63 21 30 c12 17 19 32 16 35 -2 2
-12 -8 -22 -23 l-18 -27 -23 30 c-13 16 -24 25 -24 21z"/>
<path d="M102 39 c-15 -23 -11 -33 10 -27 9 2 12 11 9 26 l-6 22 -13 -21z"/>
<path d="M130 51 c0 -7 7 -19 15 -27 19 -20 19 -5 0 20 -9 11 -15 14 -15 7z"/>
</g>
</svg>
